PathFileType	4	(X/Y/Z)	/Users/itak/Documents/Research/Walk-IL/dataset/trc/00129_00007.trc
DataRate	CameraRate	NumFrames	NumMarkers	Units	OrigDataRate	OrigDataStartFrame	OrigNumFrames
100.000000	100.000000	4	53	mm	100.000000	90	721
Frame#	Time	RPSI			LPSI			L3			STRN			T10			C7			CLAV			RBAK			LBAK			LSHO			LUPA			LAEL			LAOL			LWTS			LWPS			LFRA			LIFD			LHPS			LHTS			RSHO			RUPA			RAEL			RAOL			RWTS			RWPS			RFRA			RIFD			RHTS			RHPS			RBHD			LFHD			RFHD			LBHD			LHIP			RHIP			RASI			LASI			LKNE			LTHI			LANK			LTIP			LTOE			LMT1			LMT5			LHEE			RKNE			RTHI			RANK			RTIP			RTOE			RMT1			RMT5			RHEE			
		X1	Y1	Z1	X2	Y2	Z2	X3	Y3	Z3	X4	Y4	Z4	X5	Y5	Z5	X6	Y6	Z6	X7	Y7	Z7	X8	Y8	Z8	X9	Y9	Z9	X10	Y10	Z10	X11	Y11	Z11	X12	Y12	Z12	X13	Y13	Z13	X14	Y14	Z14	X15	Y15	Z15	X16	Y16	Z16	X17	Y17	Z17	X18	Y18	Z18	X19	Y19	Z19	X20	Y20	Z20	X21	Y21	Z21	X22	Y22	Z22	X23	Y23	Z23	X24	Y24	Z24	X25	Y25	Z25	X26	Y26	Z26	X27	Y27	Z27	X28	Y28	Z28	X29	Y29	Z29	X30	Y30	Z30	X31	Y31	Z31	X32	Y32	Z32	X33	Y33	Z33	X34	Y34	Z34	X35	Y35	Z35	X36	Y36	Z36	X37	Y37	Z37	X38	Y38	Z38	X39	Y39	Z39	X40	Y40	Z40	X41	Y41	Z41	X42	Y42	Z42	X43	Y43	Z43	X44	Y44	Z44	X45	Y45	Z45	X46	Y46	Z46	X47	Y47	Z47	X48	Y48	Z48	X49	Y49	Z49	X50	Y50	Z50	X51	Y51	Z51	X52	Y52	Z52	X53	Y53	Z53	

91	0.9	283.5920104980469	1116.587036132812	1120.630004882812	274.7623291015625	1127.440673828125	1254.821411132812	285.9108276367188	1160.2626953125	1192.953735351562	57.1159553527832	1348.434326171875	1190.871826171875	311.9389953613281	1315.485717773438	1199.9423828125	253.5877532958984	1602.96923828125	1219.228515625	82.21099853515625	1485.74072265625	1197.879150390625	326.5566101074219	1424.294311523438	1133.299072265625	255.2928619384766	1581.955322265625	1320.956787109375	166.1557159423828	1562.020141601562	1384.375	188.9036865234375	1430.261962890625	1453.500366210938	184.3431854248047	1210.411743164062	1471.6923828125	256.5497741699219	1202.987060546875	1422.179565429688	109.3471145629883	945.8190307617188	1412.168823242188	187.6338500976562	926.1717529296875	1448.19140625	174.2050933837891	1092.325317382812	1472.090576171875	116.7291412353516	752.6439208984375	1385.8818359375	165.5311584472656	849.3359375	1445.128784179688	99.71890258789062	854.6033935546875	1419.934814453125	212.2859191894531	1580.4052734375	1033.448364257812	240.7641296386719	1509.5224609375	971.7517700195312	284.0877685546875	1217.989379882812	954.3516845703125	282.28173828125	1217.517333984375	1050.792358398438	156.23828125	965.9297485351562	953.521240234375	235.4263763427734	953.6410522460938	931.7002563476562	268.0549011230469	1142.871948242188	937.0826416015625	140.8516693115234	770.2175903320312	970.778564453125	133.8946838378906	855.685302734375	945.4525756835938	205.0394439697266	851.7412719726562	924.8311157226562	212.8062744140625	1772.191284179688	1145.74267578125	17.49556159973145	1827.213012695312	1231.864013671875	48.81775665283203	1828.628295898438	1106.546264648438	186.9919891357422	1774.724365234375	1278.995727539062	186.8262481689453	1038.505126953125	1362.88623046875	153.3698883056641	1018.880432128906	1002.645568847656	76.76957702636719	1095.229125976562	1056.259521484375	74.58538055419922	1094.779907226562	1324.314453125	187.4935455322266	536.39306640625	1332.020874023438	200.2782440185547	682.923095703125	1361.635131835938	332.4549255371094	42.92126846313477	1317.84765625	300.4951782226562	292.7778625488281	1355.39990234375	108.3165130615234	41.29960250854492	1234.431274414062	193.2454528808594	46.050048828125	1211.097412109375	204.5350189208984	41.78385925292969	1327.479370117188	407.4127502441406	42.54055023193359	1263.4365234375	-39.48542785644531	568.6483154296875	1058.571533203125	62.08946990966797	829.579345703125	1023.84765625	196.8261566162109	91.89802551269531	1072.427001953125	14.62186336517334	435.9952697753906	1047.967529296875	-30.36228561401367	74.80005645751953	1095.476806640625	21.28577995300293	64.76683807373047	1145.520751953125	71.7071533203125	70.05580139160156	1036.313598632812	247.3699951171875	107.2300491333008	1126.844482421875	
92	0.91	280.7397766113281	1116.391845703125	1119.879638671875	271.6833801269531	1127.196411132812	1254.019165039062	282.9727172851562	1160.055053710938	1192.251586914062	53.63636016845703	1347.819091796875	1189.885375976562	308.5011901855469	1315.391479492188	1199.348388671875	249.4556274414062	1602.737670898438	1218.456176757812	78.45521545410156	1485.1494140625	1196.873779296875	322.9408264160156	1424.18115234375	1132.787475585938	251.0436859130859	1581.875366210938	1320.21484375	161.7517852783203	1561.847900390625	1383.42236328125	184.7275390625	1430.155639648438	1452.698974609375	181.1974487304688	1210.323120117188	1471.007080078125	253.5502014160156	1203.273071289062	1421.683349609375	107.1742248535156	945.5790405273438	1411.318237304688	185.4658050537109	926.1512451171875	1447.441772460938	171.4834442138672	1092.250732421875	1471.382934570312	115.084587097168	752.4768676757812	1384.980346679688	163.5882415771484	849.2562255859375	1444.307739257812	97.77864837646484	854.33447265625	1418.99365234375	208.527099609375	1579.953369140625	1032.63671875	237.2810516357422	1509.111083984375	971.0391235351562	281.4584655761719	1217.752807617188	953.8610229492188	279.368408203125	1217.281860351562	1050.291381835938	155.1516418457031	964.9262084960938	952.6997680664062	234.4660339355469	953.1887817382812	931.0875244140625	265.8692321777344	1142.58642578125	936.549072265625	141.0551147460938	769.1691284179688	969.9144897460938	133.5301208496094	854.5225219726562	944.5594482421875	204.7598571777344	851.0841064453125	924.1159057617188	208.6754913330078	1771.728515625	1145.164428710938	12.6337251663208	1826.526000976562	1229.749877929688	44.94344711303711	1827.919067382812	1104.673828125	181.712646484375	1774.176025390625	1278.1064453125	183.8148193359375	1038.056884765625	1361.94921875	150.5048370361328	1018.867431640625	1001.526977539062	73.93490600585938	1094.837646484375	1055.246459960938	71.45411682128906	1094.099853515625	1323.3408203125	186.0232086181641	536.065673828125	1331.3857421875	198.2496490478516	682.5867309570312	1360.922485351562	332.4763793945312	43.00496673583984	1317.787841796875	299.7453918457031	292.9248352050781	1355.025756835938	108.2589721679688	41.31678009033203	1234.44140625	193.2332763671875	46.04333877563477	1210.923217773438	204.5214080810547	41.79015350341797	1327.4423828125	407.4350280761719	42.54445266723633	1263.357543945312	-44.95210647583008	570.1553344726562	1056.373657226562	58.57727432250977	830.4608154296875	1022.698974609375	180.4947204589844	88.12203979492188	1072.219116210938	6.663396835327148	436.3291320800781	1046.041137695312	-47.38307189941406	75.60942077636719	1092.769897460938	3.666693925857544	64.48233795166016	1143.159057617188	55.36647796630859	69.19644165039062	1034.645874023438	230.7212371826172	102.3281784057617	1127.025390625	
93	0.92	277.76904296875	1116.14892578125	1119.101440429688	268.4603881835938	1126.923461914062	1253.19189453125	279.8646545410156	1159.794311523438	1191.515258789062	50.02589797973633	1347.122314453125	1188.794677734375	304.9194946289062	1315.24169921875	1198.703002929688	245.182373046875	1602.451538085938	1217.62841796875	74.57411193847656	1484.48193359375	1195.773681640625	319.1932983398438	1424.009521484375	1132.233520507812	246.6362915039062	1581.7529296875	1319.428466796875	157.1498565673828	1561.620849609375	1382.364624023438	180.3005065917969	1430.019775390625	1451.808471679688	177.7653045654297	1210.198974609375	1470.236938476562	250.3121337890625	1203.528930664062	1421.186279296875	104.8829574584961	945.27197265625	1410.30859375	183.1483612060547	926.0914306640625	1446.635009765625	168.5182647705078	1092.138549804688	1470.570556640625	113.4433746337891	752.2272338867188	1383.954345703125	161.5276794433594	849.135986328125	1443.422485351562	95.75228118896484	854.0200805664062	1417.90380859375	204.658935546875	1579.445434570312	1031.760620117188	233.6997985839844	1508.635864257812	970.2704467773438	278.7184753417969	1217.454223632812	953.3644409179688	276.2947998046875	1216.986450195312	1049.778930664062	153.9745025634766	963.8709106445312	951.8005981445312	233.4299926757812	952.6803588867188	930.4734497070312	263.5845031738281	1142.242797851562	936.005615234375	141.1546173095703	768.0751342773438	968.9443359375	133.0960693359375	853.3177490234375	943.577880859375	204.4189910888672	850.3831176757812	923.3701171875	204.4678192138672	1771.205932617188	1144.572631835938	7.648634910583496	1825.783325195312	1227.533203125	40.98274993896484	1827.155883789062	1102.694091796875	176.2517852783203	1773.521362304688	1277.140991210938	180.6513061523438	1037.5830078125	1360.974487304688	147.5479278564453	1018.7666015625	1000.363159179688	71.00147247314453	1094.34375	1054.170166015625	68.19995880126953	1093.352661132812	1322.326293945312	184.4346923828125	535.67333984375	1330.714965820312	196.1111907958984	682.225341796875	1360.205200195312	332.4983825683594	43.09214401245117	1317.72607421875	298.9657287597656	293.1433410644531	1354.66943359375	108.2041473388672	41.35602951049805	1234.447021484375	193.2175445556641	45.993896484375	1210.7548828125	204.5078277587891	41.802734375	1327.40185546875	407.459716796875	42.53963470458984	1263.28515625	-50.19625091552734	571.4910888671875	1054.009399414062	55.15032958984375	831.2431030273438	1021.502258300781	163.5222930908203	84.09600830078125	1071.83642578125	-1.258049368858337	436.4961242675781	1043.92919921875	-64.91636657714844	76.23564910888672	1089.843994140625	-14.4935884475708	64.02414703369141	1140.639038085938	38.43193817138672	68.10361480712891	1032.817138671875	213.3771667480469	97.15750885009766	1126.965454101562	
94	0.93	274.6745300292969	1115.859008789062	1118.2890625	265.0909118652344	1126.622680664062	1252.33447265625	276.5856018066406	1159.481567382812	1190.738891601562	46.28037261962891	1346.345458984375	1187.604125976562	301.1915893554688	1315.038940429688	1198.000366210938	240.7635650634766	1602.113403320312	1216.739013671875	70.55593109130859	1483.745849609375	1194.577758789062	315.3151550292969	1423.778076171875	1131.62890625	242.0702819824219	1581.587768554688	1318.588745117188	152.3570251464844	1561.34130859375	1381.202758789062	175.6105194091797	1429.843505859375	1450.821044921875	174.0155944824219	1210.042358398438	1469.366577148438	246.794677734375	1203.741577148438	1420.660766601562	102.469970703125	944.882080078125	1409.131713867188	180.6798400878906	925.9879150390625	1445.76953125	165.2794952392578	1091.980346679688	1469.635131835938	111.8418121337891	751.8726806640625	1382.815551757812	159.3663787841797	848.964599609375	1442.474853515625	93.66021728515625	853.6346435546875	1416.669921875	200.6782073974609	1578.880615234375	1030.812744140625	230.0127563476562	1508.097045898438	969.437744140625	275.8689880371094	1217.095703125	952.8451538085938	273.0794372558594	1216.634765625	1049.239624023438	152.6956939697266	962.7691650390625	950.841064453125	232.2962951660156	952.115966796875	929.8534545898438	261.1968688964844	1141.840454101562	935.439208984375	141.1200256347656	766.9396362304688	967.9022827148438	132.568359375	852.0802612304688	942.52978515625	203.9886779785156	849.6397705078125	922.60107421875	200.1646881103516	1770.6240234375	1143.946655273438	2.535439491271973	1824.980224609375	1225.215698242188	36.92634963989258	1826.33154296875	1100.601806640625	170.6358337402344	1772.789428710938	1276.1005859375	177.3371734619141	1037.084350585938	1359.965698242188	144.5184936523438	1018.566589355469	999.1814575195312	67.96200561523438	1093.74609375	1053.040405273438	64.83091735839844	1092.537963867188	1321.285034179688	182.7342681884766	535.2223510742188	1330.014404296875	193.8660583496094	681.8378295898438	1359.478515625	332.5201721191406	43.18157958984375	1317.661987304688	298.1706848144531	293.4305725097656	1354.324462890625	108.1615982055664	41.42180633544922	1234.458862304688	193.1972198486328	45.92648696899414	1210.626953125	204.4971008300781	41.82635498046875	1327.361450195312	407.4855651855469	42.52876281738281	1263.218383789062	-55.22281265258789	572.6446533203125	1051.484985351562	51.8033447265625	831.908935546875	1020.240295410156	145.9565277099609	79.90898895263672	1071.263061523438	-9.139664649963379	436.5108032226562	1041.640625	-82.91698455810547	76.71121978759766	1086.78125	-33.13227844238281	63.43452453613281	1137.984130859375	20.94913291931152	66.82796478271484	1030.8349609375	195.4140167236328	91.84081268310547	1126.66748046875	
